<?xml version="1.0" encoding="UTF-8"?>
<!DOCTYPE svg PUBLIC "-//W3C//DTD SVG 1.0//EN" "http://www.w3.org/TR/2001/REC-SVG-20010904/DTD/svg10.dtd">
<!-- Creator: CorelDRAW X7 -->
<svg xmlns="http://www.w3.org/2000/svg" xml:space="preserve" width="16mm" height="42mm" version="1.0" shape-rendering="geometricPrecision" text-rendering="geometricPrecision" image-rendering="optimizeQuality" fill-rule="evenodd" clip-rule="evenodd"
viewBox="0 0 1600 4200"
 xmlns:xlink="http://www.w3.org/1999/xlink">
 <g id="Layer_x0020_1">
  <metadata id="CorelCorpID_0Corel-Layer"/>
  <polygon fill="white" points="739,2726 739,809 937,809 937,2726 "/>
  <g transform="matrix(2.64845E-014 -1 1 2.64845E-014 -1194.79 3543.3)">
   <text x="800" y="2100"  fill="#555555" font-weight="normal" font-size="4pt" font-family="OCRA">Lolin nodeMCU V3.1</text>
  </g>
  <polygon fill="white" points="435,223 586,223 586,386 435,386 "/>
  <text x="422" y="360"  fill="#555555" font-weight="normal" font-size="3.5pt" font-family="OCRA">A0</text>
  <polygon fill="white" points="1068,223 1219,223 1219,385 1068,385 "/>
  <text x="1054" y="359"  fill="#555555" font-weight="normal" font-size="3.5pt" font-family="OCRA">D0</text>
  <polygon fill="white" points="435,479 675,479 675,642 435,642 "/>
  <text x="421" y="615"  fill="#555555" font-weight="normal" font-size="3.5pt" font-family="OCRA">GND</text>
  <polygon fill="white" points="1079,479 1230,479 1230,642 1079,642 "/>
  <text x="1065" y="616"  fill="#555555" font-weight="normal" font-size="3.5pt" font-family="OCRA">D1</text>
  <polygon fill="white" points="435,734 586,734 586,897 435,897 "/>
  <text x="421" y="871"  fill="#555555" font-weight="normal" font-size="3.5pt" font-family="OCRA">VU</text>
  <polygon fill="white" points="1081,719 1232,719 1232,882 1081,882 "/>
  <text x="1067" y="856"  fill="#555555" font-weight="normal" font-size="3.5pt" font-family="OCRA">D2</text>
  <polygon fill="white" points="437,984 588,984 588,1147 437,1147 "/>
  <text x="423" y="1121"  fill="#555555" font-weight="normal" font-size="3.5pt" font-family="OCRA">S3</text>
  <polygon fill="white" points="1082,994 1232,994 1232,1157 1082,1157 "/>
  <text x="1068" y="1130"  fill="#555555" font-weight="normal" font-size="3.5pt" font-family="OCRA">D3</text>
  <polygon fill="white" points="435,1246 586,1246 586,1409 435,1409 "/>
  <text x="421" y="1383"  fill="#555555" font-weight="normal" font-size="3.5pt" font-family="OCRA">S2</text>
  <polygon fill="white" points="1082,1263 1230,1263 1230,1426 1082,1426 "/>
  <text x="1068" y="1400"  fill="#555555" font-weight="normal" font-size="3.5pt" font-family="OCRA">D4</text>
  <polygon fill="white" points="437,1492 588,1492 588,1655 437,1655 "/>
  <text x="423" y="1629"  fill="#555555" font-weight="normal" font-size="3.5pt" font-family="OCRA">S1</text>
  <polygon fill="white" points="1079,1504 1230,1504 1230,1667 1079,1667 "/>
  <text x="1065" y="1641"  fill="#555555" font-weight="normal" font-size="3.5pt" font-family="OCRA">3V</text>
  <polygon fill="white" points="437,1746 588,1746 588,1909 437,1909 "/>
  <text x="423" y="1882"  fill="#555555" font-weight="normal" font-size="3.5pt" font-family="OCRA">SC</text>
  <polygon fill="white" points="1169,1723 1230,1723 1230,1886 1169,1886 "/>
  <text x="1155" y="1860"  fill="#555555" font-weight="normal" font-size="3.5pt" font-family="OCRA">G</text>
  <polygon fill="white" points="437,1999 588,1999 588,2162 437,2162 "/>
  <text x="423" y="2136"  fill="#555555" font-weight="normal" font-size="3.5pt" font-family="OCRA">S0</text>
  <polygon fill="white" points="1081,1997 1231,1997 1231,2159 1081,2159 "/>
  <text x="1067" y="2133"  fill="#555555" font-weight="normal" font-size="3.5pt" font-family="OCRA">D5</text>
  <polygon fill="white" points="437,2253 588,2253 588,2416 437,2416 "/>
  <text x="423" y="2389"  fill="#555555" font-weight="normal" font-size="3.5pt" font-family="OCRA">SK</text>
  <polygon fill="white" points="1079,2257 1229,2257 1229,2419 1079,2419 "/>
  <text x="1065" y="2393"  fill="#555555" font-weight="normal" font-size="3.5pt" font-family="OCRA">D6</text>
  <polygon fill="white" points="437,2506 498,2506 498,2669 437,2669 "/>
  <text x="423" y="2643"  fill="#555555" font-weight="normal" font-size="3.5pt" font-family="OCRA">G</text>
  <polygon fill="white" points="1079,2512 1230,2512 1230,2675 1079,2675 "/>
  <text x="1065" y="2649"  fill="#555555" font-weight="normal" font-size="3.5pt" font-family="OCRA">D7</text>
  <polygon fill="white" points="437,2760 588,2760 588,2923 437,2923 "/>
  <text x="423" y="2896"  fill="#555555" font-weight="normal" font-size="3.5pt" font-family="OCRA">3V</text>
  <polygon fill="white" points="1080,2768 1230,2768 1230,2930 1080,2930 "/>
  <text x="1066" y="2904"  fill="#555555" font-weight="normal" font-size="3.5pt" font-family="OCRA">D8</text>
  <polygon fill="white" points="437,3013 588,3013 588,3176 437,3176 "/>
  <text x="423" y="3150"  fill="#555555" font-weight="normal" font-size="3.5pt" font-family="OCRA">EN</text>
  <polygon fill="white" points="1079,3018 1230,3018 1230,3181 1079,3181 "/>
  <text x="1065" y="3155"  fill="#555555" font-weight="normal" font-size="3.5pt" font-family="OCRA">D9</text>
  <polygon fill="white" points="437,3267 677,3267 677,3430 437,3430 "/>
  <text x="423" y="3403"  fill="#555555" font-weight="normal" font-size="3.5pt" font-family="OCRA">RST</text>
  <polygon fill="white" points="990,3278 1230,3278 1230,3441 990,3441 "/>
  <text x="976" y="3415"  fill="#555555" font-weight="normal" font-size="3.5pt" font-family="OCRA">D10</text>
  <polygon fill="white" points="437,3520 498,3520 498,3683 437,3683 "/>
  <text x="423" y="3657"  fill="#555555" font-weight="normal" font-size="3.5pt" font-family="OCRA">G</text>
  <polygon fill="white" points="993,3519 1233,3519 1233,3682 993,3682 "/>
  <text x="979" y="3656"  fill="#555555" font-weight="normal" font-size="3.5pt" font-family="OCRA">GND</text>
  <polygon fill="white" points="437,3774 677,3774 677,3937 437,3937 "/>
  <text x="423" y="3910"  fill="#555555" font-weight="normal" font-size="3.5pt" font-family="OCRA">Vin</text>
  <polygon fill="white" points="1079,3778 1230,3778 1230,3941 1079,3941 "/>
  <text x="1065" y="3915"  fill="#555555" font-weight="normal" font-size="3.5pt" font-family="OCRA">3V</text>
  <rect fill="none" stroke="black" stroke-width="20" x="306" y="30" width="1017" height="4064"/>
  <line fill="none" stroke="black" stroke-width="20" x1="306" y1="283" x2="55" y2= "283" />
  <line fill="none" stroke="black" stroke-width="20" x1="306" y1="547" x2="55" y2= "547" />
  <line fill="none" stroke="black" stroke-width="20" x1="306" y1="795" x2="55" y2= "795" />
  <line fill="none" stroke="black" stroke-width="20" x1="306" y1="1049" x2="55" y2= "1049" />
  <line fill="none" stroke="black" stroke-width="20" x1="306" y1="1302" x2="55" y2= "1302" />
  <line fill="none" stroke="black" stroke-width="20" x1="1323" y1="283" x2="1580" y2= "283" />
  <line fill="none" stroke="black" stroke-width="20" x1="1323" y1="531" x2="1580" y2= "531" />
  <line fill="none" stroke="black" stroke-width="20" x1="1323" y1="795" x2="1580" y2= "795" />
  <line fill="none" stroke="black" stroke-width="20" x1="1323" y1="1054" x2="1580" y2= "1054" />
  <line fill="none" stroke="black" stroke-width="20" x1="1323" y1="1307" x2="1580" y2= "1307" />
  <line fill="none" stroke="black" stroke-width="20" x1="1323" y1="1550" x2="1580" y2= "1550" />
  <line fill="none" stroke="black" stroke-width="20" x1="1323" y1="1809" x2="1580" y2= "1809" />
  <line fill="none" stroke="black" stroke-width="20" x1="1323" y1="2062" x2="1580" y2= "2062" />
  <line fill="none" stroke="black" stroke-width="20" x1="1323" y1="2326" x2="1580" y2= "2326" />
  <line fill="none" stroke="black" stroke-width="20" x1="1323" y1="2569" x2="1580" y2= "2569" />
  <line fill="none" stroke="black" stroke-width="20" x1="1323" y1="2822" x2="1580" y2= "2822" />
  <line fill="none" stroke="black" stroke-width="20" x1="1323" y1="3078" x2="1577" y2= "3078" />
  <line fill="none" stroke="black" stroke-width="20" x1="1323" y1="3332" x2="1577" y2= "3332" />
  <line fill="none" stroke="black" stroke-width="20" x1="1323" y1="3586" x2="1577" y2= "3586" />
  <line fill="none" stroke="black" stroke-width="20" x1="1323" y1="3840" x2="1577" y2= "3840" />
  <line fill="none" stroke="black" stroke-width="20" x1="307" y1="1554" x2="53" y2= "1554" />
  <line fill="none" stroke="black" stroke-width="20" x1="307" y1="1808" x2="53" y2= "1808" />
  <line fill="none" stroke="black" stroke-width="20" x1="307" y1="2062" x2="53" y2= "2062" />
  <line fill="none" stroke="black" stroke-width="20" x1="307" y1="2316" x2="53" y2= "2316" />
  <line fill="none" stroke="black" stroke-width="20" x1="307" y1="2570" x2="53" y2= "2570" />
  <line fill="none" stroke="black" stroke-width="20" x1="307" y1="2824" x2="53" y2= "2824" />
  <line fill="none" stroke="black" stroke-width="20" x1="307" y1="3078" x2="53" y2= "3078" />
  <line fill="none" stroke="black" stroke-width="20" x1="307" y1="3332" x2="53" y2= "3332" />
  <line fill="none" stroke="black" stroke-width="20" x1="307" y1="3586" x2="53" y2= "3586" />
  <line fill="none" stroke="black" stroke-width="20" x1="307" y1="3840" x2="53" y2= "3840" />
 </g>
</svg>
