<?xml version="1.0" encoding="UTF-8"?>
<!DOCTYPE svg PUBLIC "-//W3C//DTD SVG 1.0//EN" "http://www.w3.org/TR/2001/REC-SVG-20010904/DTD/svg10.dtd">
<!-- Creator: CorelDRAW X7 -->
<svg xmlns="http://www.w3.org/2000/svg" xml:space="preserve" width="32mm" height="59mm" version="1.0" shape-rendering="geometricPrecision" text-rendering="geometricPrecision" image-rendering="optimizeQuality" fill-rule="evenodd" clip-rule="evenodd"
viewBox="0 0 3200 5900"
 xmlns:xlink="http://www.w3.org/1999/xlink">
 <g id="Layer_x0020_1">
  <metadata id="CorelCorpID_0Corel-Layer"/>
  <path fill="#006633" d="M176 25l2859 0c68,0 124,56 124,123l0 5562c0,67 -56,123 -124,123l-2859 0c-67,0 -123,-56 -123,-123l0 -5562c0,-67 56,-123 123,-123zm2708 5333c93,0 169,76 169,169 0,93 -76,169 -169,169 -93,0 -169,-76 -169,-169 0,-93 76,-169 169,-169zm-2540 17c93,0 169,76 169,169 0,93 -76,169 -169,169 -93,0 -169,-76 -169,-169 0,-93 76,-169 169,-169zm6 -5211c93,0 169,76 169,169 0,94 -76,169 -169,169 -93,0 -169,-75 -169,-169 0,-93 76,-169 169,-169zm2504 17c93,0 168,75 168,168 0,94 -75,169 -168,169 -94,0 -169,-75 -169,-169 0,-93 75,-168 169,-168z"/>
  <rect fill="#009933" x="761" y="45" width="1652" height="2398"/>
  <rect fill="#CCCCFF" x="932" y="709" width="1279" height="1597"/>
  <path fill="none" stroke="#FF9966" stroke-width="50" stroke-linecap="round" stroke-linejoin="round" d="M1810 670l-700 0 0 -583m0 4l105 0 0 377 113 0 0 -377 117 0 0 377 120 0 0 -377 117 0 0 377 116 0 0 -377 428 0"/>
  <rect fill="#E6E6E6" x="2272" y="5295" width="311" height="342"/>
  <circle fill="#000066" cx="2428" cy="5466" r="78"/>
  <rect fill="#E6E6E6" x="618" y="5298" width="311" height="342"/>
  <circle fill="#000066" cx="773" cy="5469" r="78"/>
  <rect fill="#CCCCFF" x="1177" y="5408" width="801" height="622"/>
  <text x="432" y="5001"  fill="white" font-weight="normal" font-size="4.5pt" font-family="OCRA">Lolin nodeMCU V3.1</text>
  <text x="1310" y="5840"  fill="black" font-weight="normal" font-size="4.5pt" font-family="OCRA">USB</text>
  <g transform="matrix(2.64845E-014 1 -1 2.64845E-014 3930.47 3727.39)">
   <text x="1600" y="2950"  fill="white" font-weight="normal" font-size="4.5pt" font-family="OCRA">RST</text>
  </g>
  <text x="336" y="1223"  fill="white" font-weight="normal" font-size="4.5pt" font-family="OCRA">A0</text>
  <text x="1064" y="5154"  fill="white" font-weight="normal" font-size="4.5pt" font-family="OCRA">wemos.cc</text>
  <text x="1115" y="943"  fill="white" font-weight="normal" font-size="4.5pt" font-family="OCRA">ESP-12E</text>
  <text x="1773" y="1213"  fill="white" font-weight="normal" font-size="4.5pt" font-family="OCRA">GPIO16/D0</text>
  <text x="313" y="1479"  fill="white" font-weight="normal" font-size="4.5pt" font-family="OCRA">GND</text>
  <text x="1900" y="1469"  fill="white" font-weight="normal" font-size="4.5pt" font-family="OCRA">GPIO5/D1</text>
  <text x="326" y="1732"  fill="white" font-weight="normal" font-size="4.5pt" font-family="OCRA">VU</text>
  <text x="1902" y="1716"  fill="white" font-weight="normal" font-size="4.5pt" font-family="OCRA">GPIO4/D2</text>
  <text x="315" y="1984"  fill="white" font-weight="normal" font-size="4.5pt" font-family="OCRA">S3/GPIO10</text>
  <text x="1900" y="1996"  fill="white" font-weight="normal" font-size="4.5pt" font-family="OCRA">GPIO0/D3</text>
  <text x="323" y="2246"  fill="white" font-weight="normal" font-size="4.5pt" font-family="OCRA">S2/GPIO9</text>
  <text x="1904" y="2241"  fill="white" font-weight="normal" font-size="4.5pt" font-family="OCRA">GPIO2/D4</text>
  <text x="315" y="2492"  fill="white" font-weight="normal" font-size="4.5pt" font-family="OCRA">S1/MOSI</text>
  <text x="2027" y="2503"  fill="white" font-weight="normal" font-size="4.5pt" font-family="OCRA">3.3V/3V</text>
  <text x="315" y="2746"  fill="white" font-weight="normal" font-size="4.5pt" font-family="OCRA">CMD/CS/SC</text>
  <text x="2281" y="2727"  fill="white" font-weight="normal" font-size="4.5pt" font-family="OCRA">GND/G</text>
  <text x="315" y="2999"  fill="white" font-weight="normal" font-size="4.5pt" font-family="OCRA">S0/MISO</text>
  <text x="1772" y="3000"  fill="white" font-weight="normal" font-size="4.5pt" font-family="OCRA">GPIO14/D5</text>
  <text x="315" y="3253"  fill="white" font-weight="normal" font-size="4.5pt" font-family="OCRA">SK/SCLK</text>
  <text x="1772" y="3249"  fill="white" font-weight="normal" font-size="4.5pt" font-family="OCRA">GPIO12/D6</text>
  <text x="315" y="3506"  fill="white" font-weight="normal" font-size="4.5pt" font-family="OCRA">G/GND</text>
  <text x="1772" y="3509"  fill="white" font-weight="normal" font-size="4.5pt" font-family="OCRA">GPIO13/D7</text>
  <text x="315" y="3760"  fill="white" font-weight="normal" font-size="4.5pt" font-family="OCRA">3V/3.3V</text>
  <text x="1772" y="3770"  fill="white" font-weight="normal" font-size="4.5pt" font-family="OCRA">GPIO15/D8</text>
  <text x="315" y="4013"  fill="white" font-weight="normal" font-size="4.5pt" font-family="OCRA">EN</text>
  <text x="1900" y="4020"  fill="white" font-weight="normal" font-size="4.5pt" font-family="OCRA">GPIO3/D9</text>
  <text x="315" y="4267"  fill="white" font-weight="normal" font-size="4.5pt" font-family="OCRA">RST</text>
  <text x="1772" y="4279"  fill="white" font-weight="normal" font-size="4.5pt" font-family="OCRA">GPIO1/D10</text>
  <g transform="matrix(2.64845E-014 1 -1 2.64845E-014 5018.64 3590.81)">
   <text x="1600" y="2950"  fill="white" font-weight="normal" font-size="4.5pt" font-family="OCRA">FLASH</text>
  </g>
  <circle id="connector0pin" fill="none" stroke="#FFBF00" stroke-width="30.48" cx="198" cy="1147" r="42"/>
  <circle id="connector0pin_0" fill="none" stroke="#FFBF00" stroke-width="30.48" cx="2992" cy="1147" r="42"/>
  <circle id="connector0pin_1" fill="none" stroke="#FFBF00" stroke-width="30.48" cx="198" cy="1401" r="42"/>
  <circle id="connector0pin_2" fill="none" stroke="#FFBF00" stroke-width="30.48" cx="2992" cy="1401" r="42"/>
  <circle id="connector0pin_3" fill="none" stroke="#FFBF00" stroke-width="30.48" cx="198" cy="1655" r="42"/>
  <circle id="connector0pin_4" fill="none" stroke="#FFBF00" stroke-width="30.48" cx="2992" cy="1655" r="42"/>
  <circle id="connector0pin_5" fill="none" stroke="#FFBF00" stroke-width="30.48" cx="198" cy="1909" r="42"/>
  <circle id="connector0pin_6" fill="none" stroke="#FFBF00" stroke-width="30.48" cx="2992" cy="1909" r="42"/>
  <circle id="connector0pin_7" fill="none" stroke="#FFBF00" stroke-width="30.48" cx="198" cy="2163" r="42"/>
  <circle id="connector0pin_8" fill="none" stroke="#FFBF00" stroke-width="30.48" cx="2992" cy="2163" r="42"/>
  <circle id="connector0pin_9" fill="none" stroke="#FFBF00" stroke-width="30.48" cx="198" cy="2417" r="42"/>
  <circle id="connector0pin_10" fill="none" stroke="#FFBF00" stroke-width="30.48" cx="2992" cy="2417" r="42"/>
  <circle id="connector0pin_11" fill="none" stroke="#FFBF00" stroke-width="30.48" cx="198" cy="2671" r="42"/>
  <circle id="connector0pin_12" fill="none" stroke="#FFBF00" stroke-width="30.48" cx="2992" cy="2671" r="42"/>
  <circle id="connector0pin_13" fill="none" stroke="#FFBF00" stroke-width="30.48" cx="198" cy="2925" r="42"/>
  <circle id="connector0pin_14" fill="none" stroke="#FFBF00" stroke-width="30.48" cx="2992" cy="2925" r="42"/>
  <circle id="connector0pin_15" fill="none" stroke="#FFBF00" stroke-width="30.48" cx="198" cy="3179" r="42"/>
  <circle id="connector0pin_16" fill="none" stroke="#FFBF00" stroke-width="30.48" cx="2992" cy="3179" r="42"/>
  <circle id="connector0pin_17" fill="none" stroke="#FFBF00" stroke-width="30.48" cx="198" cy="3433" r="42"/>
  <circle id="connector0pin_18" fill="none" stroke="#FFBF00" stroke-width="30.48" cx="2992" cy="3433" r="42"/>
  <circle id="connector0pin_19" fill="none" stroke="#FFBF00" stroke-width="30.48" cx="198" cy="3687" r="42"/>
  <circle id="connector0pin_20" fill="none" stroke="#FFBF00" stroke-width="30.48" cx="2992" cy="3687" r="42"/>
  <circle id="connector0pin_21" fill="none" stroke="#FFBF00" stroke-width="30.48" cx="198" cy="3941" r="42"/>
  <circle id="connector0pin_22" fill="none" stroke="#FFBF00" stroke-width="30.48" cx="2992" cy="3941" r="42"/>
  <circle id="connector0pin_23" fill="none" stroke="#FFBF00" stroke-width="30.48" cx="198" cy="4195" r="42"/>
  <circle id="connector0pin_24" fill="none" stroke="#FFBF00" stroke-width="30.48" cx="2992" cy="4195" r="42"/>
  <circle id="connector0pin_25" fill="none" stroke="#FFBF00" stroke-width="30.48" cx="198" cy="4449" r="42"/>
  <circle id="connector0pin_26" fill="none" stroke="#FFBF00" stroke-width="30.48" cx="2992" cy="4449" r="42"/>
  <circle id="connector0pin_27" fill="none" stroke="#FFBF00" stroke-width="30.48" cx="198" cy="4703" r="42"/>
  <circle id="connector0pin_28" fill="none" stroke="#FFBF00" stroke-width="30.48" cx="2992" cy="4703" r="42"/>
  <rect fill="#333333" x="765" y="4386" width="1022" height="385"/>
  <g transform="matrix(-1 -0 -0 -1 3386.02 7407.34)">
   <text x="1600" y="2950"  fill="white" font-weight="normal" font-size="4.5pt" font-family="OCRA">CH340G</text>
  </g>
  <text x="315" y="4520"  fill="white" font-weight="normal" font-size="4.5pt" font-family="OCRA">G/GND</text>
  <text x="2278" y="4520"  fill="white" font-weight="normal" font-size="4.5pt" font-family="OCRA">G/GND</text>
  <text x="315" y="4774"  fill="white" font-weight="normal" font-size="4.5pt" font-family="OCRA">Vin/5V</text>
  <text x="2027" y="4777"  fill="white" font-weight="normal" font-size="4.5pt" font-family="OCRA">3.3V/3V</text>
 </g>
</svg>
