<?xml version="1.0" encoding="UTF-8" standalone="no"?>
<!-- Created with Inkscape (http://www.inkscape.org/) -->

<svg
   xmlns:dc="http://purl.org/dc/elements/1.1/"
   xmlns:cc="http://creativecommons.org/ns#"
   xmlns:rdf="http://www.w3.org/1999/02/22-rdf-syntax-ns#"
   xmlns:svg="http://www.w3.org/2000/svg"
   xmlns="http://www.w3.org/2000/svg"
   xmlns:sodipodi="http://sodipodi.sourceforge.net/DTD/sodipodi-0.dtd"
   xmlns:inkscape="http://www.inkscape.org/namespaces/inkscape"
   width="210mm"
   height="297mm"
   viewBox="0 0 744.09448819 1052.3622047"
   id="svg2"
   version="1.1"
   inkscape:version="0.91 r13725"
   sodipodi:docname="blockdiagram01.svg">
  <defs
     id="defs4" />
  <sodipodi:namedview
     id="base"
     pagecolor="#ffffff"
     bordercolor="#666666"
     borderopacity="1.0"
     inkscape:pageopacity="0.0"
     inkscape:pageshadow="2"
     inkscape:zoom="0.35"
     inkscape:cx="-106.42857"
     inkscape:cy="520"
     inkscape:document-units="px"
     inkscape:current-layer="layer1"
     showgrid="false"
     inkscape:window-width="1920"
     inkscape:window-height="1011"
     inkscape:window-x="1596"
     inkscape:window-y="80"
     inkscape:window-maximized="1" />
  <metadata
     id="metadata7">
    <rdf:RDF>
      <cc:Work
         rdf:about="">
        <dc:format>image/svg+xml</dc:format>
        <dc:type
           rdf:resource="http://purl.org/dc/dcmitype/StillImage" />
        <dc:title></dc:title>
      </cc:Work>
    </rdf:RDF>
  </metadata>
  <g
     inkscape:label="Layer 1"
     inkscape:groupmode="layer"
     id="layer1">
    <ellipse
       style="opacity:1;fill:none;fill-opacity:1;stroke:#000000;stroke-width:0.5;stroke-miterlimit:4;stroke-dasharray:none;stroke-dashoffset:0;stroke-opacity:1"
       id="path4136"
       cx="410"
       cy="396.64792"
       rx="144.28572"
       ry="152.85715" />
    <path
       style="fill:none;fill-rule:evenodd;stroke:#000000;stroke-width:1px;stroke-linecap:butt;stroke-linejoin:miter;stroke-opacity:1"
       d="m 425.71429,235.21935 c 5.71428,-1.90476 11.29931,-4.2534 17.14285,-5.71429 1.84789,-0.46197 3.81514,-0.14609 5.71429,0 10.4884,0.8068 21.08935,0.91854 31.42857,2.85714 13.36965,2.50681 16.46268,8.78174 28.57143,14.28572 5.48349,2.49249 11.85495,2.82997 17.14286,5.71428 5.35359,2.92015 9.40714,7.76965 14.28571,11.42858 2.74709,2.06031 6.14332,3.28618 8.57143,5.71428 3.36717,3.36718 5.52293,7.77038 8.57143,11.42857 1.72449,2.06939 4.71385,3.21321 5.71428,5.71429 1.06112,2.65279 -0.69296,5.79959 0,8.57143 0.32667,1.30665 2.25481,1.65246 2.85715,2.85714 0.42591,0.85184 0,1.90476 0,2.85714 0,1.90477 0.60233,3.90727 0,5.71429 -0.42592,1.27775 -1.90477,1.90476 -2.85715,2.85714 -1.90476,1.90476 -3.55929,4.09804 -5.71428,5.71429 -1.70367,1.27775 -3.80953,1.90476 -5.71429,2.85714 -12.88572,6.44286 3.09901,-1.033 -17.14286,5.71429 -2.0203,0.67343 -3.69398,2.1837 -5.71428,2.85714 -3.72526,1.24175 -7.64017,1.82394 -11.42857,2.85714 -6.68913,1.82431 -13.22047,4.26153 -20,5.71429 -6.58487,1.41104 -13.49304,1.12195 -20,2.85714 -7.8624,2.09664 -14.99475,6.47479 -22.85715,8.57143 -6.50696,1.73519 -13.32472,1.96711 -20,2.85714 -6.84274,0.91237 -42.82457,5.39502 -48.57142,5.71429 -8.55824,0.47545 -17.15955,-0.53467 -25.71429,0 -6.72124,0.42007 -13.32472,1.9671 -20,2.85714 -7.61099,1.0148 -15.25597,1.77126 -22.85714,2.85714 -27.62611,3.94659 -7.65039,0.70404 -37.14286,11.42857 -3.69035,1.34195 -7.65289,1.77838 -11.42857,2.85715 -8.23802,2.35372 -7.54202,2.34244 -14.28572,5.71428 -1.90476,0.95238 -4.20843,1.3513 -5.71428,2.85715 -0.67344,0.67343 0.67343,2.1837 0,2.85714 -0.67344,0.67343 -2.18371,-0.67344 -2.85714,0 -0.67344,0.67343 0.30117,1.95363 0,2.85714 -1.34687,4.04061 -4.68129,7.29656 -5.71429,11.42857 -0.54319,2.17276 0,11.89318 0,14.28572 0,5.71428 0,11.42857 0,17.14285 0,1.90477 -0.37355,3.84652 0,5.71429 1.75077,8.75387 6.59604,15.60835 11.42857,22.85714 1.90476,2.85715 3.56917,5.89004 5.71429,8.57143 1.68276,2.10346 3.80952,3.80953 5.71428,5.71429 1.90476,1.90476 3.80953,3.80952 5.71429,5.71428 0.95238,0.95238 1.65246,2.25481 2.85714,2.85715 2.69374,1.34687 5.87769,1.51027 8.57143,2.85714 3.07134,1.53567 5.38317,4.43898 8.57143,5.71428 1.76853,0.70742 3.84651,-0.37355 5.71428,0 2.95321,0.59065 5.61822,2.26651 8.57143,2.85715 1.86778,0.37355 3.80953,0 5.71429,0 3.80952,0 7.61905,0 11.42857,0 19.12342,0 5.95939,0.53875 31.42857,-2.85715 7.61099,-1.01479 15.29564,-1.52276 22.85714,-2.85714 14.12571,-2.49277 41.4187,-9.28187 54.28572,-14.28571 7.93914,-3.08745 15.05299,-8.01426 22.85714,-11.42857 7.45491,-3.26153 15.13757,-5.99824 22.85714,-8.57143 6.57764,-2.19255 13.68803,-2.84521 20,-5.71429 4.33508,-1.97049 7.39049,-6.04762 11.42858,-8.57143 3.61177,-2.25736 7.73057,-3.60114 11.42857,-5.71428 2.98142,-1.70367 5.62692,-3.94758 8.57143,-5.71429 1.8261,-1.09566 4.20843,-1.35129 5.71428,-2.85714 0.67344,-0.67344 -0.30117,-1.95364 0,-2.85714 0.67344,-2.02031 2.34064,-3.64829 2.85714,-5.71429 0.46198,-1.84789 0,-3.80952 0,-5.71429 0,-1.90476 0,-3.80952 0,-5.71428 0,-4.76191 0.67344,-9.57167 0,-14.28572 -0.30117,-2.10818 -2.06623,-3.73701 -2.85714,-5.71428 -1.11851,-2.79629 -1.30764,-5.98892 -2.85714,-8.57143 -1.38592,-2.30986 -3.80953,-3.80952 -5.71429,-5.71429 -6.01703,-6.01703 -11.95564,-11.06797 -20,-14.28571 -2.79628,-1.11851 -5.87769,-1.51027 -8.57143,-2.85714 -3.07133,-1.53567 -5.50009,-4.17862 -8.57142,-5.71429 -4.58728,-2.29364 -9.69844,-3.42065 -14.28572,-5.71428 -12.30272,-6.15137 -4.70946,-6.87248 -20,-8.57143 -4.73278,-0.52587 -9.56058,0.59064 -14.28571,0 -2.98844,-0.37356 -5.64966,-2.1267 -8.57143,-2.85715 -4.71122,-1.1778 -9.47831,-2.17037 -14.28572,-2.85714 -1.88561,-0.26937 -3.84651,0.37356 -5.71428,0 -2.95321,-0.59064 -5.71429,-1.90476 -8.57143,-2.85714 -6.33329,-2.1111 -14.32961,-4.79117 -20,-8.57143 -6.5639,-4.37594 1.22515,-1.63199 -5.71429,-8.57143 -1.50584,-1.50584 -4.533,-1.08522 -5.71428,-2.85714 -1.05657,-1.58486 0.60234,-3.90727 0,-5.71429 -0.42592,-1.27775 -1.90476,-1.90476 -2.85714,-2.85714 0,-1.90476 0.37355,-3.84651 0,-5.71429 5.55774,-7.93796 -4.68129,-7.29656 -5.71429,-11.42857 -0.46801,-1.87203 0,-24.34353 0,-25.71428 0,-2.85715 0,-5.71429 0,-8.57143 0,-2.85714 -0.56033,-5.76977 0,-8.57143 1.1929,-5.96449 4.98023,-6.93957 8.57143,-11.42857 14.41701,-18.02126 -2.36864,-0.48851 11.42857,-14.28572 0.95238,-0.95238 1.73648,-2.11003 2.85714,-2.85714 12.4787,-8.31913 -0.94176,1.2663 11.42857,-2.85714 1.27776,-0.42592 1.65247,-2.25481 2.85715,-2.85714 0.85183,-0.42592 1.90476,0 2.85714,0 1.90476,0 3.80952,0 5.71429,0 3.80952,0 7.69302,-0.74711 11.42857,0 2.95321,0.59064 6.06555,1.18655 8.57143,2.85714 9.30297,6.20198 20.56496,24.84529 25.71428,34.28571 6.67728,12.24169 9.56054,18.82811 14.28572,31.42857 1.05747,2.81994 2.36202,5.60072 2.85714,8.57143 0.60346,3.62079 0,22.4406 0,25.71429 0,4.7619 1.36832,9.72464 0,14.28571 -1.59573,5.31909 -5.87452,9.43127 -8.57143,14.28572 -0.14352,0.25833 -11.38033,22.7896 -11.42857,22.85714 -7.36516,10.31123 -8.29806,6.91505 -17.14286,14.28571 -20.36088,20.36088 2.74618,-1.62551 -17.14286,14.28572 -4.20691,3.36553 -7.11858,8.19608 -11.42857,11.42857 -1.70367,1.27775 -4.01061,1.57939 -5.71428,2.85714 -6.89861,5.17396 -5.80559,7.25699 -11.42857,14.28572 -9.39323,11.74153 -3.45461,-1.46308 -11.42858,17.14285 -1.18636,2.76819 -1.73862,5.77515 -2.85714,8.57143 -0.79091,1.97728 -2.34064,3.64828 -2.85714,5.71429 -0.46197,1.84789 0.46197,3.86639 0,5.71428 -0.5165,2.06601 -2.34064,3.64829 -2.85714,5.71429 -0.46198,1.84789 0,3.80952 0,5.71429 0,1.90476 0,3.80952 0,5.71428 0,3.80953 -0.74711,7.69303 0,11.42857 0.59064,2.95321 2.2665,5.61822 2.85714,8.57143 0.37355,1.86777 -0.85184,4.01062 0,5.71429 1.20468,2.40935 4.50961,3.30493 5.71428,5.71428 4.52647,9.05293 -5.91257,2.65886 2.85715,11.42857 1.50584,1.50585 4.01061,1.57939 5.71428,2.85715 2.15499,1.61624 3.30493,4.50961 5.71429,5.71428 1.70367,0.85184 3.86639,-0.46197 5.71428,0 2.06601,0.5165 3.80953,1.90477 5.71429,2.85715 1.90476,0.95238 3.94236,1.67586 5.71429,2.85714 1.12066,0.74711 1.55048,2.53048 2.85714,2.85714 2.77183,0.69296 5.71428,0 8.57143,0 3.80952,0 7.61904,0 11.42857,0 3.80952,0 7.73279,0.92395 11.42857,0 4.13201,-1.033 7.55116,-3.95182 11.42857,-5.71428 6.603,-3.00137 13.30482,-5.78177 20,-8.57143 4.73421,-1.97259 9.8024,-3.22356 14.28572,-5.71429 4.16265,-2.31258 7.29408,-6.20886 11.42857,-8.57143 2.61488,-1.49421 5.98892,-1.30764 8.57143,-2.85714 2.30986,-1.38592 3.80952,-3.80952 5.71428,-5.71429 1.90476,-1.90476 3.80953,-3.80952 5.71429,-5.71428 1.90476,-1.90476 4.50961,-3.30493 5.71428,-5.71429 0.85184,-1.70367 0,-3.80952 0,-5.71428 0,-2.85715 0,-5.71429 0,-8.57143 0,-4.76191 0,-9.52381 0,-14.28572 0,-8.82629 -1.03829,-14.35014 -8.57143,-20 -3.63484,-2.72613 -10.44428,-4.27374 -14.28571,-5.71428 -4.80218,-1.80082 -9.69844,-3.42065 -14.28571,-5.71429 -4.96702,-2.4835 -9.12962,-6.50899 -14.28572,-8.57143 -4.50888,-1.80355 -9.67871,-1.32147 -14.28571,-2.85714 -6.88091,-2.29364 -13.11909,-6.27779 -20,-8.57143 -13.23844,-7.71685 -28.93276,-4.287 -42.85715,-8.57143 -44.22428,-13.60747 3.54166,-5.00595 -28.57142,-11.42857 -5.68061,-1.13612 -11.41712,-1.97626 -17.14286,-2.85714 -6.65604,-1.02401 -13.46672,-1.22382 -20,-2.85714 -4.9756,-1.2439 -9.42018,-4.09244 -14.28572,-5.71429 -2.8019,-0.93397 -16.56055,-3.65062 -20,-5.71428 -2.30986,-1.38592 -3.47295,-4.22007 -5.71428,-5.71429 -0.79243,-0.52829 -2.18371,0.67344 -2.85714,0 -1.50585,-1.50585 -1.67586,-3.94236 -2.85715,-5.71429 -1.49422,-2.24132 -4.86245,-3.15877 -5.71428,-5.71428 -0.60234,-1.80702 0.60234,-3.90727 0,-5.71429 -0.42592,-1.27775 -2.43123,-1.57939 -2.85715,-2.85714 -0.34923,-1.04771 0,-16.65265 0,-17.14286 0,-5.71428 0,-11.42857 0,-17.14285 0,-1.90477 -0.37355,-3.84652 0,-5.71429 0.59065,-2.95321 2.26651,-5.61822 2.85715,-8.57143 0.37355,-1.86777 -0.70741,-3.94576 0,-5.71428 1.2753,-3.18826 4.17861,-5.5001 5.71428,-8.57143 6.99995,-20.99985 -0.93469,-1.45511 5.71429,-11.42857 5.28306,0.58455 1.96271,-6.78258 2.85714,-8.57143 3.15865,-6.3173 1.77327,-0.88664 5.71429,-2.85715 3.42857,-1.71428 5.14285,-6.85714 8.57143,-8.57142 0.85183,-0.42592 1.90476,0 2.85714,0 1.90476,0 3.80952,0 5.71428,0 3.80953,0 7.69303,-0.74711 11.42858,0 2.9532,0.59064 5.71428,1.90476 8.57142,2.85714 2.85715,0.95238 5.98893,1.30764 8.57143,2.85714 3.54472,2.12683 10.08098,11.14133 11.42857,14.28572 1.54683,3.60926 1.39878,7.78266 2.85715,11.42857 2.37273,5.93182 6.55112,11.08194 8.57143,17.14285 3.48342,10.45028 2.85714,18.22181 2.85714,28.57143 0,4.76191 0.93388,9.61629 0,14.28572 -1.00583,5.02913 -4.09244,9.42017 -5.71429,14.28571 -4.16202,12.48607 -4.87767,25.35124 -11.42857,37.14286 -2.31258,4.16265 -5.93,7.46643 -8.57143,11.42857 -3.54385,5.31577 -5.40171,11.59586 -8.57143,17.14286 -2.69907,4.72339 -11.49831,16.65512 -14.28571,20 -1.72449,2.06939 -4.09804,3.55929 -5.71429,5.71428 -1.27775,1.70367 -1.90476,3.80953 -2.85714,5.71429 -6.70051,13.40102 1.34687,-3.36718 -5.71428,14.28571 -0.79091,1.97728 -2.34065,3.64828 -2.85715,5.71429 -0.46197,1.84789 0.37356,3.84651 0,5.71428 -0.59064,2.95321 -2.1267,5.64966 -2.85714,8.57143 -0.23099,0.92395 0,1.90477 0,2.85715 -0.95238,2.85714 -1.73863,5.77514 -2.85714,8.57142 -0.79091,1.97728 -2.18371,3.69399 -2.85715,5.71429 -0.60233,1.80702 1.34687,4.36742 0,5.71429 -0.67343,0.67343 -2.1837,0.67343 -2.85714,0 -2.10201,-2.10201 2.29925,-5.1564 2.85714,-5.71429"
       id="path4138"
       inkscape:connector-curvature="0" />
  </g>
</svg>
